<svg xmlns="http://www.w3.org/2000/svg" width="26.598" height="26.598" viewBox="0 0 26.598 26.598"><circle cx="12" cy="12" r="12" transform="translate(1.299 1.299)" fill="#00d186"></circle><path d="M19.178,9.08a1.039,1.039,0,0,1,0,1.469l-6.97,6.97a1.039,1.039,0,0,1-1.469,0L7.42,14.2A1.039,1.039,0,0,1,8.89,12.732l2.583,2.583L17.709,9.08a1.039,1.039,0,0,1,1.469,0ZM26.6,13.3A13.3,13.3,0,1,1,13.3,0,13.292,13.292,0,0,1,26.6,13.3Zm-2.078,0A11.221,11.221,0,1,0,13.3,24.521,11.215,11.215,0,0,0,24.52,13.3Zm0,0" transform="translate(0 0)" fill="#fff"></path></svg>