<?xml version="1.0" encoding="utf-8"?>
<!-- Generator: Adobe Illustrator 23.0.1, SVG Export Plug-In . SVG Version: 6.00 Build 0)  -->
<!DOCTYPE svg PUBLIC "-//W3C//DTD SVG 1.1//EN" "http://www.w3.org/Graphics/SVG/1.1/DTD/svg11.dtd" [
	<!ENTITY ns_extend "http://ns.adobe.com/Extensibility/1.0/">
	<!ENTITY ns_ai "http://ns.adobe.com/AdobeIllustrator/10.0/">
	<!ENTITY ns_graphs "http://ns.adobe.com/Graphs/1.0/">
	<!ENTITY ns_vars "http://ns.adobe.com/Variables/1.0/">
	<!ENTITY ns_imrep "http://ns.adobe.com/ImageReplacement/1.0/">
	<!ENTITY ns_sfw "http://ns.adobe.com/SaveForWeb/1.0/">
	<!ENTITY ns_custom "http://ns.adobe.com/GenericCustomNamespace/1.0/">
	<!ENTITY ns_adobe_xpath "http://ns.adobe.com/XPath/1.0/">
]>
<svg version="1.1" id="Camada_1" xmlns:x="&ns_extend;" xmlns:i="&ns_ai;" xmlns:graph="&ns_graphs;"
	 xmlns="http://www.w3.org/2000/svg" xmlns:xlink="http://www.w3.org/1999/xlink" x="0px" y="0px" viewBox="0 0 40 40"
	 style="enable-background:new 0 0 40 40;" xml:space="preserve">
<metadata>
	<sfw  xmlns="&ns_sfw;">
		<slices></slices>
		<sliceSourceBounds  bottomLeftOrigin="true" height="36.59" width="35" x="2.5" y="-38.3"></sliceSourceBounds>
	</sfw>
</metadata>
<path d="M25,23.02c3.7-1.85,6.25-5.66,6.25-10.07C31.25,6.75,26.2,1.7,20,1.7S8.75,6.75,8.75,12.96c0,4.41,2.55,8.22,6.25,10.07
	C3.27,25.79,2.51,38.07,2.5,38.21l1.74,0.09C4.27,37.72,5.14,24.21,20,24.21S35.73,37.72,35.76,38.3l1.74-0.09
	C37.49,38.07,36.73,25.79,25,23.02z M10.49,12.96c0-5.24,4.26-9.51,9.51-9.51s9.51,4.26,9.51,9.51s-4.26,9.51-9.51,9.51
	S10.49,18.2,10.49,12.96z"/>
</svg>
