<?xml version="1.0" encoding="utf-8"?>
<!-- Generator: Adobe Illustrator 23.0.1, SVG Export Plug-In . SVG Version: 6.00 Build 0)  -->
<!DOCTYPE svg PUBLIC "-//W3C//DTD SVG 1.1//EN" "http://www.w3.org/Graphics/SVG/1.1/DTD/svg11.dtd" [
	<!ENTITY ns_extend "http://ns.adobe.com/Extensibility/1.0/">
	<!ENTITY ns_ai "http://ns.adobe.com/AdobeIllustrator/10.0/">
	<!ENTITY ns_graphs "http://ns.adobe.com/Graphs/1.0/">
	<!ENTITY ns_vars "http://ns.adobe.com/Variables/1.0/">
	<!ENTITY ns_imrep "http://ns.adobe.com/ImageReplacement/1.0/">
	<!ENTITY ns_sfw "http://ns.adobe.com/SaveForWeb/1.0/">
	<!ENTITY ns_custom "http://ns.adobe.com/GenericCustomNamespace/1.0/">
	<!ENTITY ns_adobe_xpath "http://ns.adobe.com/XPath/1.0/">
]>
<svg version="1.1" id="Camada_1" xmlns:x="&ns_extend;" xmlns:i="&ns_ai;" xmlns:graph="&ns_graphs;"
	 xmlns="http://www.w3.org/2000/svg" xmlns:xlink="http://www.w3.org/1999/xlink" x="0px" y="0px" viewBox="0 0 40 40"
	 style="enable-background:new 0 0 40 40;" xml:space="preserve">
<metadata>
	<sfw  xmlns="&ns_sfw;">
		<slices></slices>
		<sliceSourceBounds  bottomLeftOrigin="true" height="16.7" width="38.4" x="0.8" y="-28.3"></sliceSourceBounds>
	</sfw>
</metadata>
<g>
	<rect x="3" y="16.2" width="0.9" height="7.6"/>
	<rect x="5.4" y="16.2" width="0.9" height="7.6"/>
	<rect x="7.8" y="16.2" width="0.9" height="7.6"/>
	<rect x="10.2" y="16.2" width="0.9" height="7.6"/>
	<rect x="12.6" y="16.2" width="0.9" height="7.6"/>
	<rect x="15" y="16.2" width="0.9" height="7.6"/>
	<rect x="17.4" y="16.2" width="0.9" height="7.6"/>
	<rect x="4.2" y="16.2" width="0.9" height="7.6"/>
	<rect x="6.6" y="16.2" width="0.9" height="7.6"/>
	<rect x="9" y="16.2" width="0.9" height="7.6"/>
	<rect x="11.4" y="16.2" width="0.9" height="7.6"/>
	<rect x="13.8" y="16.2" width="0.9" height="7.6"/>
	<rect x="16.2" y="16.2" width="0.9" height="7.6"/>
	<rect x="18.6" y="16.2" width="0.9" height="7.6"/>
	<rect x="19.8" y="16.2" width="0.9" height="7.6"/>
	<rect x="22.2" y="16.2" width="0.9" height="7.6"/>
	<rect x="24.6" y="16.2" width="0.9" height="7.6"/>
	<rect x="27" y="16.2" width="0.9" height="7.6"/>
	<rect x="29.4" y="16.2" width="0.9" height="7.6"/>
	<rect x="31.8" y="16.2" width="0.9" height="7.6"/>
	<rect x="34.2" y="16.2" width="0.9" height="7.6"/>
	<rect x="21" y="16.2" width="0.9" height="7.6"/>
	<rect x="23.4" y="16.2" width="0.9" height="7.6"/>
	<rect x="25.8" y="16.2" width="0.9" height="7.6"/>
	<rect x="28.2" y="16.2" width="0.9" height="7.6"/>
	<rect x="30.6" y="16.2" width="0.9" height="7.6"/>
	<rect x="33" y="16.2" width="0.9" height="7.6"/>
	<rect x="35.4" y="16.2" width="0.9" height="7.6"/>
	<path d="M38.2,14.3h0.9v-2.2c0-0.2-0.2-0.4-0.4-0.4h-2.2v0.9h1.7V14.3z"/>
	<path d="M38.3,25.7v1.7h-1.7v0.9h2.2c0.2,0,0.4-0.2,0.4-0.4v-2.2H38.3z"/>
	<path d="M1.7,12.5h1.7v-0.9H1.2c-0.2,0-0.4,0.2-0.4,0.4v2.2h0.9V12.5z"/>
	<path d="M1.7,25.7H0.8v2.2c0,0.2,0.2,0.4,0.4,0.4h2.2v-0.9H1.7V25.7z"/>
</g>
</svg>
