<?xml version="1.0" encoding="utf-8"?>
<!-- Generator: Adobe Illustrator 23.0.1, SVG Export Plug-In . SVG Version: 6.00 Build 0)  -->
<!DOCTYPE svg PUBLIC "-//W3C//DTD SVG 1.1//EN" "http://www.w3.org/Graphics/SVG/1.1/DTD/svg11.dtd" [
	<!ENTITY ns_extend "http://ns.adobe.com/Extensibility/1.0/">
	<!ENTITY ns_ai "http://ns.adobe.com/AdobeIllustrator/10.0/">
	<!ENTITY ns_graphs "http://ns.adobe.com/Graphs/1.0/">
	<!ENTITY ns_vars "http://ns.adobe.com/Variables/1.0/">
	<!ENTITY ns_imrep "http://ns.adobe.com/ImageReplacement/1.0/">
	<!ENTITY ns_sfw "http://ns.adobe.com/SaveForWeb/1.0/">
	<!ENTITY ns_custom "http://ns.adobe.com/GenericCustomNamespace/1.0/">
	<!ENTITY ns_adobe_xpath "http://ns.adobe.com/XPath/1.0/">
]>
<svg version="1.1" id="Camada_1" xmlns:x="&ns_extend;" xmlns:i="&ns_ai;" xmlns:graph="&ns_graphs;"
	 xmlns="http://www.w3.org/2000/svg" xmlns:xlink="http://www.w3.org/1999/xlink" x="0px" y="0px" viewBox="0 0 40 40"
	 style="enable-background:new 0 0 40 40;" xml:space="preserve">
<metadata>
	<sfw  xmlns="&ns_sfw;">
		<slices></slices>
		<sliceSourceBounds  bottomLeftOrigin="true" height="40" width="40" x="0" y="-40"></sliceSourceBounds>
	</sfw>
</metadata>
<g>
	<path d="M10,14.3c-0.6,0-1.1-0.5-1.1-1.1c0-2.5,2-4.6,4.5-4.6c2.5-0.1,4.6,2,4.6,4.5c0,0.6-0.5,1.1-1.1,1.1c-0.6,0-1.1-0.5-1.1-1.1
		c0-1.3-1.1-2.4-2.4-2.3c-1.3,0-2.3,1.1-2.3,2.4C11.1,13.8,10.6,14.3,10,14.3C10,14.3,10,14.3,10,14.3z"/>
	<path d="M23.6,14.3c-0.6,0-1.1-0.5-1.1-1.1c0-2.5,2-4.6,4.5-4.6c0,0,0.1,0,0.1,0c2.5,0,4.5,2,4.6,4.5c0,0.6-0.5,1.1-1.1,1.1
		c0,0,0,0,0,0c-0.6,0-1.1-0.5-1.1-1.1c0-1.3-1.1-2.3-2.4-2.3c-1.3,0-2.3,1.1-2.3,2.4C24.7,13.8,24.2,14.3,23.6,14.3
		C23.6,14.3,23.6,14.3,23.6,14.3z"/>
	<path d="M19.6,32.1c-4,0-8-1.5-11.1-4.6C8,27.1,8,26.4,8.5,26c0.4-0.4,1.1-0.4,1.5,0c5.3,5.3,13.9,5.3,19.1,0
		c0.4-0.4,1.1-0.4,1.5,0c0.4,0.4,0.4,1.1,0,1.5C27.6,30.6,23.6,32.1,19.6,32.1z"/>
	<path d="M20,40C9,40,0,31,0,20S9,0,20,0s20,9,20,20S31,40,20,40z M20,2.2c-9.8,0-17.8,8-17.8,17.8s8,17.8,17.8,17.8
		s17.8-8,17.8-17.8S29.8,2.2,20,2.2z"/>
</g>
</svg>
