<?xml version="1.0" encoding="utf-8"?>
<!-- Generator: Adobe Illustrator 23.0.1, SVG Export Plug-In . SVG Version: 6.00 Build 0)  -->
<!DOCTYPE svg PUBLIC "-//W3C//DTD SVG 1.1//EN" "http://www.w3.org/Graphics/SVG/1.1/DTD/svg11.dtd" [
	<!ENTITY ns_extend "http://ns.adobe.com/Extensibility/1.0/">
	<!ENTITY ns_ai "http://ns.adobe.com/AdobeIllustrator/10.0/">
	<!ENTITY ns_graphs "http://ns.adobe.com/Graphs/1.0/">
	<!ENTITY ns_vars "http://ns.adobe.com/Variables/1.0/">
	<!ENTITY ns_imrep "http://ns.adobe.com/ImageReplacement/1.0/">
	<!ENTITY ns_sfw "http://ns.adobe.com/SaveForWeb/1.0/">
	<!ENTITY ns_custom "http://ns.adobe.com/GenericCustomNamespace/1.0/">
	<!ENTITY ns_adobe_xpath "http://ns.adobe.com/XPath/1.0/">
]>
<svg version="1.1" id="Camada_1" xmlns:x="&ns_extend;" xmlns:i="&ns_ai;" xmlns:graph="&ns_graphs;"
	 xmlns="http://www.w3.org/2000/svg" xmlns:xlink="http://www.w3.org/1999/xlink" x="0px" y="0px" viewBox="0 0 40 40"
	 style="enable-background:new 0 0 40 40;" xml:space="preserve">
<metadata>
	<sfw  xmlns="&ns_sfw;">
		<slices></slices>
		<sliceSourceBounds  bottomLeftOrigin="true" height="31.49" width="39.8" x="0.2" y="-36"></sliceSourceBounds>
	</sfw>
</metadata>
<path style="fill:#FFFFFF;" d="M32.05,8.78l-14.75,8.5l-0.41,0.24h-0.01c-0.25,0.1-0.53,0.16-0.81,0.16c-0.33,0-0.64-0.08-0.92-0.2
	l-0.19-0.12c-0.02-0.01-0.04-0.02-0.06-0.03L8.1,13.39l14.92-8.61c0.03-0.01,0.06-0.03,0.09-0.05c0.29-0.14,0.62-0.23,0.96-0.23
	c0.35,0,0.67,0.08,0.96,0.23c0.03,0.02,0.05,0.03,0.08,0.04L32.05,8.78z"/>
<path style="fill:#72B4A5;" d="M40,22.55L17.16,35.72c-0.03,0.02-0.06,0.03-0.09,0.05C16.78,35.92,16.46,36,16.12,36
	c-0.34,0-0.67-0.08-0.96-0.23c-0.03-0.02-0.06-0.03-0.08-0.05L0.2,27.15l6.89-3.98c0.03-0.02,0.07-0.04,0.11-0.07
	c0.29-0.14,0.61-0.22,0.95-0.22c0.35,0,0.68,0.08,0.97,0.24c0.03,0.02,0.05,0.03,0.07,0.03l5.76,3.32c0.07,0.04,0.13,0.08,0.2,0.11
	c0.29,0.16,0.62,0.25,0.97,0.25c0.35,0,0.67-0.08,0.96-0.24c0.08-0.03,0.14-0.08,0.2-0.12l13.77-7.93c0.3-0.16,0.63-0.25,0.99-0.25
	c0.36,0,0.7,0.09,0.99,0.25L40,22.55z"/>
</svg>
