<?xml version="1.0" encoding="utf-8"?>
<!-- Generator: Adobe Illustrator 23.0.1, SVG Export Plug-In . SVG Version: 6.00 Build 0)  -->
<!DOCTYPE svg PUBLIC "-//W3C//DTD SVG 1.1//EN" "http://www.w3.org/Graphics/SVG/1.1/DTD/svg11.dtd" [
	<!ENTITY ns_extend "http://ns.adobe.com/Extensibility/1.0/">
	<!ENTITY ns_ai "http://ns.adobe.com/AdobeIllustrator/10.0/">
	<!ENTITY ns_graphs "http://ns.adobe.com/Graphs/1.0/">
	<!ENTITY ns_vars "http://ns.adobe.com/Variables/1.0/">
	<!ENTITY ns_imrep "http://ns.adobe.com/ImageReplacement/1.0/">
	<!ENTITY ns_sfw "http://ns.adobe.com/SaveForWeb/1.0/">
	<!ENTITY ns_custom "http://ns.adobe.com/GenericCustomNamespace/1.0/">
	<!ENTITY ns_adobe_xpath "http://ns.adobe.com/XPath/1.0/">
]>
<svg version="1.1" id="Camada_1" xmlns:x="&ns_extend;" xmlns:i="&ns_ai;" xmlns:graph="&ns_graphs;"
	 xmlns="http://www.w3.org/2000/svg" xmlns:xlink="http://www.w3.org/1999/xlink" x="0px" y="0px" viewBox="0 0 40 40"
	 style="enable-background:new 0 0 40 40;" xml:space="preserve">
<metadata>
	<sfw  xmlns="&ns_sfw;">
		<slices></slices>
		<sliceSourceBounds  bottomLeftOrigin="true" height="40" width="40" x="0" y="-40"></sliceSourceBounds>
	</sfw>
</metadata>
<path d="M37,11.7H21.7V3c0-1.6-1.3-3-3-3H3C1.3,0,0,1.4,0,3v34c0,1.7,1.3,3,3,3h34c1.7,0,3-1.3,3-3V14.7C40,13,38.7,11.7,37,11.7z
	 M6.3,38v-5.7c0-0.5,0.4-1,1-1h2.5V38H6.3z M15.3,38h-3.5v-6.7h2.5c0.6,0,1,0.5,1,1V38z M19.7,38h-2.3v-5.7c0-1.7-1.3-3-3-3h-7
	c-1.7,0-3,1.3-3,3V38H3c-0.5,0-1-0.4-1-1V3c0-0.6,0.5-1,1-1h15.7c0.5,0,1,0.4,1,1V38z M38,37c0,0.6-0.5,1-1,1H21.7V13.7H37
	c0.5,0,1,0.5,1,1V37z"/>
<g>
	<path d="M16.3,6.8h-11c-0.6,0-1-0.4-1-1s0.4-1,1-1h11c0.6,0,1,0.4,1,1S16.9,6.8,16.3,6.8z"/>
</g>
<g>
	<path d="M16.3,11.8h-11c-0.6,0-1-0.4-1-1s0.4-1,1-1h11c0.6,0,1,0.4,1,1S16.9,11.8,16.3,11.8z"/>
</g>
<g>
	<path d="M16.3,16.8h-11c-0.6,0-1-0.4-1-1s0.4-1,1-1h11c0.6,0,1,0.4,1,1S16.9,16.8,16.3,16.8z"/>
</g>
<g>
	<path d="M16.3,21.8h-11c-0.6,0-1-0.4-1-1s0.4-1,1-1h11c0.6,0,1,0.4,1,1S16.9,21.8,16.3,21.8z"/>
</g>
<g>
	<path d="M35.3,18.8h-11c-0.6,0-1-0.4-1-1s0.4-1,1-1h11c0.6,0,1,0.4,1,1S35.9,18.8,35.3,18.8z"/>
</g>
<g>
	<path d="M35.3,23.8h-11c-0.6,0-1-0.4-1-1s0.4-1,1-1h11c0.6,0,1,0.4,1,1S35.9,23.8,35.3,23.8z"/>
</g>
<g>
	<path d="M35.3,28.8h-11c-0.6,0-1-0.4-1-1s0.4-1,1-1h11c0.6,0,1,0.4,1,1S35.9,28.8,35.3,28.8z"/>
</g>
</svg>
